<svg xmlns="http://www.w3.org/2000/svg" width="375" viewBox="0 0 375 375" height="375" version="1.0"><defs><clipPath id="a"><path d="M 14 97 L 361 97 L 361 337.171875 L 14 337.171875 Z M 14 97"/></clipPath><clipPath id="b"><path d="M 182 50.671875 L 303 50.671875 L 303 312 L 182 312 Z M 182 50.671875"/></clipPath></defs><path fill="#FFF" d="M 357.308594 100.460938 L 17.460938 100.460938 L 17.460938 318.222656 L 162.371094 318.222656 C 163.992188 327.027344 173.800781 333.808594 185.691406 333.808594 C 197.582031 333.808594 207.390625 327.027344 209.007812 318.222656 L 357.3125 318.222656 L 357.3125 100.460938 Z M 357.308594 100.460938"/><g clip-path="url(#a)"><path d="M 185.691406 337.140625 C 173.414062 337.140625 163.03125 330.730469 159.820312 321.554688 L 17.460938 321.554688 C 15.621094 321.554688 14.132812 320.0625 14.132812 318.222656 L 14.132812 100.460938 C 14.132812 98.621094 15.621094 97.128906 17.460938 97.128906 L 357.308594 97.128906 C 359.148438 97.128906 360.640625 98.621094 360.640625 100.460938 L 360.640625 318.222656 C 360.640625 320.0625 359.148438 321.554688 357.308594 321.554688 L 211.5625 321.554688 C 208.351562 330.734375 197.964844 337.140625 185.691406 337.140625 Z M 20.792969 314.894531 L 162.371094 314.894531 C 163.980469 314.894531 165.359375 316.039062 165.648438 317.621094 C 166.996094 324.953125 175.613281 330.480469 185.691406 330.480469 C 195.769531 330.480469 204.382812 324.953125 205.730469 317.621094 C 206.023438 316.039062 207.402344 314.894531 209.007812 314.894531 L 353.976562 314.894531 L 353.976562 103.789062 L 20.792969 103.789062 Z M 20.792969 314.894531"/></g><path fill="#FFF" d="M 197.628906 302.835938 L 335.894531 302.835938 L 335.894531 91.113281 L 38.636719 91.113281 L 38.636719 302.835938 L 173.785156 302.835938 C 173.785156 302.835938 186.003906 318.007812 197.628906 302.835938 Z M 197.628906 302.835938"/><path d="M 186.28125 312.910156 C 179.722656 312.910156 174.511719 308.414062 172.316406 306.167969 L 38.636719 306.167969 C 36.796875 306.167969 35.308594 304.675781 35.308594 302.835938 L 35.308594 91.113281 C 35.308594 89.273438 36.796875 87.78125 38.636719 87.78125 L 335.894531 87.78125 C 337.734375 87.78125 339.226562 89.273438 339.226562 91.113281 L 339.226562 302.835938 C 339.226562 304.675781 337.734375 306.167969 335.894531 306.167969 L 199.21875 306.167969 C 195.378906 310.644531 191.03125 312.910156 186.28125 312.910156 Z M 41.96875 299.507812 L 173.785156 299.507812 C 174.792969 299.507812 175.75 299.964844 176.378906 300.75 C 176.417969 300.796875 180.9375 306.25 186.28125 306.25 C 189.292969 306.25 192.21875 304.421875 194.984375 300.8125 C 195.617188 299.992188 196.59375 299.507812 197.628906 299.507812 L 332.5625 299.507812 L 332.5625 94.445312 L 41.96875 94.445312 Z M 41.96875 299.507812"/><path fill="#FFF" d="M 186.144531 308.609375 L 53.207031 294.308594 L 53.207031 64.597656 L 186.144531 90.503906 Z M 186.144531 308.609375"/><path d="M 186.144531 311.9375 C 186.023438 311.9375 185.90625 311.929688 185.785156 311.917969 L 52.851562 297.617188 C 51.160156 297.433594 49.875 296.007812 49.875 294.308594 L 49.875 64.597656 C 49.875 63.605469 50.320312 62.660156 51.089844 62.027344 C 51.855469 61.394531 52.867188 61.140625 53.84375 61.332031 L 186.78125 87.234375 C 188.34375 87.539062 189.472656 88.910156 189.472656 90.503906 L 189.472656 308.609375 C 189.472656 309.554688 189.070312 310.457031 188.371094 311.085938 C 187.753906 311.636719 186.960938 311.9375 186.144531 311.9375 Z M 56.539062 291.316406 L 182.8125 304.902344 L 182.8125 93.246094 L 56.539062 68.640625 Z M 56.539062 291.316406"/><path fill="#FFF" d="M 186.144531 308.609375 L 319.078125 294.308594 L 319.078125 64.597656 L 186.144531 90.503906 Z M 186.144531 308.609375"/><path d="M 186.144531 311.9375 C 185.328125 311.9375 184.53125 311.636719 183.917969 311.085938 C 183.214844 310.453125 182.8125 309.554688 182.8125 308.609375 L 182.8125 90.503906 C 182.8125 88.910156 183.941406 87.539062 185.503906 87.234375 L 318.441406 61.328125 C 319.417969 61.136719 320.429688 61.394531 321.195312 62.027344 C 321.964844 62.660156 322.410156 63.601562 322.410156 64.597656 L 322.410156 294.304688 C 322.410156 296.007812 321.125 297.433594 319.433594 297.617188 L 186.5 311.917969 C 186.382812 311.929688 186.261719 311.9375 186.144531 311.9375 Z M 189.476562 93.246094 L 189.476562 304.898438 L 315.75 291.316406 L 315.75 68.640625 Z M 189.476562 93.246094"/><path fill="#FFF" d="M 186.144531 309.570312 L 73.230469 288.351562 L 73.230469 55.113281 L 186.144531 85.335938 Z M 186.144531 309.570312"/><path d="M 186.144531 312.902344 C 185.941406 312.902344 185.730469 312.882812 185.527344 312.84375 L 72.613281 291.621094 C 71.039062 291.328125 69.898438 289.953125 69.898438 288.351562 L 69.898438 55.113281 C 69.898438 54.078125 70.378906 53.101562 71.203125 52.46875 C 72.023438 51.839844 73.09375 51.628906 74.09375 51.894531 L 187.007812 82.117188 C 188.464844 82.507812 189.476562 83.824219 189.476562 85.332031 L 189.476562 309.570312 C 189.476562 310.5625 189.035156 311.5 188.273438 312.132812 C 187.667969 312.632812 186.914062 312.902344 186.144531 312.902344 Z M 76.5625 285.589844 L 182.8125 305.558594 L 182.8125 87.890625 L 76.5625 59.453125 Z M 76.5625 285.589844"/><path fill="#FFF" d="M 237.074219 70.757812 L 186.144531 84.390625 L 186.144531 308.628906 L 299.058594 287.40625 L 299.058594 54.167969 L 265.046875 63.554688"/><g clip-path="url(#b)"><path d="M 186.144531 311.957031 C 185.375 311.957031 184.621094 311.691406 184.015625 311.191406 C 183.253906 310.558594 182.8125 309.617188 182.8125 308.628906 L 182.8125 84.390625 C 182.8125 82.882812 183.824219 81.5625 185.28125 81.175781 L 236.214844 67.542969 C 237.988281 67.066406 239.820312 68.121094 240.296875 69.898438 C 240.773438 71.671875 239.714844 73.5 237.9375 73.976562 L 189.476562 86.945312 L 189.476562 304.613281 L 295.726562 284.644531 L 295.726562 58.542969 L 265.933594 66.765625 C 264.152344 67.253906 262.324219 66.214844 261.835938 64.445312 C 261.347656 62.671875 262.386719 60.835938 264.160156 60.347656 L 298.171875 50.960938 C 299.171875 50.683594 300.25 50.890625 301.078125 51.519531 C 301.90625 52.148438 302.390625 53.128906 302.390625 54.167969 L 302.390625 287.40625 C 302.390625 289.007812 301.25 290.382812 299.675781 290.679688 L 186.761719 311.898438 C 186.554688 311.9375 186.347656 311.957031 186.144531 311.957031 Z M 186.144531 311.957031"/></g></svg>